<?xml version="1.0" encoding="UTF-8"?>
<svg version="1.1" xmlns="http://www.w3.org/2000/svg" width="500" height="300">
<path d="M0 0 C96.71676421 0 96.71676421 0 118.6796875 20.5859375 C135.38444548 37.9656352 138.40840482 61.87502428 138.1484375 84.9296875 C137.65192115 106.70315039 131.58684565 126.35788184 116 142 C115.45859375 142.56460938 114.9171875 143.12921875 114.359375 143.7109375 C86.73381314 170.08079201 26.73835586 160 0 160 C0 107.2 0 54.4 0 0 Z M33 28 C33 62.32 33 96.64 33 132 C64.841479 133.56682263 64.841479 133.56682263 91.75 120.6875 C102.11716687 108.30449513 104.33554118 96.22634323 104.4375 80.375 C104.44765137 79.25561035 104.45780273 78.1362207 104.46826172 76.98291016 C104.33202876 63.87960232 101.96495083 50.66144591 92.890625 40.6796875 C75.93917233 24.83884724 55.84453047 28 33 28 Z " fill="#FBFBFB" transform="translate(36,69)"/>
<path d="M0 0 C0.64839844 0.515625 1.29679687 1.03125 1.96484375 1.5625 C2.79757812 2.18253906 3.6303125 2.80257812 4.48828125 3.44140625 C14.19585874 11.75562482 17.93210294 25.25002862 18.96484375 37.5625 C19.11302658 40.60592162 19.14977487 43.64080725 19.15234375 46.6875 C19.16458984 47.45964844 19.17683594 48.23179687 19.18945312 49.02734375 C19.19138672 49.78402344 19.19332031 50.54070312 19.1953125 51.3203125 C19.19942139 51.9920752 19.20353027 52.66383789 19.20776367 53.35595703 C18.96484375 55.5625 18.96484375 55.5625 16.96484375 61.5625 C-8.77515625 61.5625 -34.51515625 61.5625 -61.03515625 61.5625 C-57.76223347 75.44545436 -57.76223347 75.44545436 -48.90234375 84.98828125 C-48.24492187 85.28089844 -47.5875 85.57351562 -46.91015625 85.875 C-46.24757812 86.18050781 -45.585 86.48601562 -44.90234375 86.80078125 C-37.11595279 89.97723781 -26.42960168 89.84988675 -18.47265625 87.0625 C-12.98208882 84.48415922 -8.74307146 79.97833041 -6.03515625 74.5625 C-2.15734793 74.30611947 -0.11176393 74.7645888 3.1015625 76.93359375 C3.84341797 77.42537109 4.58527344 77.91714844 5.34960938 78.42382812 C6.10951172 78.94396484 6.86941406 79.46410156 7.65234375 80 C9.17672143 81.02007228 10.7014446 82.03962851 12.2265625 83.05859375 C12.89647217 83.51419678 13.56638184 83.9697998 14.2565918 84.43920898 C15.97145868 85.61487216 15.97145868 85.61487216 17.96484375 86.5625 C16.71022331 95.39189134 9.95994071 102.2901542 3.32421875 107.8125 C-9.75420965 117.51305616 -27.25951244 119.20263298 -43.04296875 117.05859375 C-58.26512506 114.68544115 -70.90248104 109.31889907 -80.84765625 97.1875 C-92.84032403 80.67994553 -95.20526508 59.77143566 -92.1640625 39.95336914 C-90.12909179 28.11985709 -86.53548207 19.00390394 -79.03515625 9.5625 C-78.48472656 8.86125 -77.93429688 8.16 -77.3671875 7.4375 C-73.24987506 2.78393715 -68.57267213 -0.03027087 -63.09765625 -2.8125 C-62.11357788 -3.31354248 -62.11357788 -3.31354248 -61.10961914 -3.82470703 C-43.19668035 -12.42167876 -16.22596457 -11.82406923 0 0 Z M-53.91015625 24.25 C-57.0638671 29.16607868 -60.03515625 34.62155508 -60.03515625 40.5625 C-43.86515625 40.5625 -27.69515625 40.5625 -11.03515625 40.5625 C-12.27798383 29.27771892 -12.27798383 29.27771892 -18.91015625 20.6875 C-30.23162012 12.98890457 -44.21756048 15.18953004 -53.91015625 24.25 Z " fill="#F8F8F8" transform="translate(289.03515625,114.4375)"/>
<path d="M0 0 C10.56 0 21.12 0 32 0 C37.62466991 13.49920779 37.62466991 13.49920779 39.32421875 18.46435547 C39.70811768 19.57946503 40.0920166 20.69457458 40.48754883 21.84347534 C40.88353271 23.00630035 41.2795166 24.16912537 41.6875 25.3671875 C42.33718132 27.25848373 42.9868633 29.14977973 43.63658142 31.04106331 C44.5344962 33.65806653 45.42878018 36.27630463 46.32312012 38.89453125 C47.88639048 43.46847145 49.455782 48.04031551 51.0246582 52.61233521 C51.85523683 55.03398362 52.68459306 57.4560518 53.51245117 59.87863159 C54.66822482 63.25478225 55.83403252 66.62735833 57 70 C57.21686462 70.63872292 57.43372925 71.27744583 57.65716553 71.93552399 C58.3207317 73.88923713 58.99356161 75.83955739 59.66796875 77.78955078 C60.06653076 78.95430939 60.46509277 80.11906799 60.87573242 81.31912231 C61.71076654 84.1269997 61.71076654 84.1269997 64 85 C64.1911161 83.93397804 64.1911161 83.93397804 64.38609314 82.84642029 C65.01065179 79.95061226 65.85606784 77.25689019 66.82250977 74.45727539 C67.19702774 73.36745865 67.57154572 72.27764191 67.95741272 71.15480042 C68.36463058 69.98094284 68.77184845 68.80708527 69.19140625 67.59765625 C69.61493881 66.3695372 70.03847137 65.14141815 70.47483826 63.87608337 C71.37484511 61.26702877 72.27703939 58.65874453 73.1809082 56.05102539 C74.31484369 52.77930827 75.44445593 49.50612086 76.57254982 46.23238564 C81.90321625 30.76712532 87.36368812 15.35681241 93 0 C103.56 0 114.12 0 125 0 C122.75020478 10.12407848 122.75020478 10.12407848 121.31445312 13.92578125 C120.99165375 14.78978043 120.66885437 15.6537796 120.33627319 16.54396057 C119.98811554 17.45757858 119.63995789 18.37119659 119.28125 19.3125 C118.91093658 20.29955429 118.54062317 21.28660858 118.15908813 22.30357361 C116.94469397 25.53773759 115.72228743 28.76881187 114.5 32 C112.77599385 36.58364074 111.05609513 41.16882008 109.3359375 45.75390625 C108.89587372 46.92514542 108.45580994 48.09638458 108.00241089 49.30311584 C104.93750478 57.46918026 101.91199131 65.64896644 98.9140625 73.83984375 C98.30537323 75.50256821 98.30537323 75.50256821 97.68438721 77.19888306 C96.11611269 81.48582448 94.54916895 85.77324128 92.98657227 90.06225586 C91.91253726 93.0097671 90.83535325 95.95611269 89.7578125 98.90234375 C89.45017975 99.75038071 89.142547 100.59841766 88.82559204 101.47215271 C86.40456777 108.08246527 83.7158997 114.48184071 81 121 C68.79 121 56.58 121 44 121 C40.68547761 113.04514625 37.49844 105.13233583 34.55078125 97.046875 C34.14000336 95.9275206 33.72922546 94.8081662 33.30599976 93.65489197 C31.9725697 90.02075333 30.64248274 86.3854015 29.3125 82.75 C27.44277456 77.64615489 25.56978348 72.54351017 23.6953125 67.44140625 C23.45927748 66.79871607 23.22324245 66.15602589 22.98005486 65.49386024 C19.57139795 56.21675861 16.11522553 46.95869966 12.6171875 37.71484375 C12.19642441 36.60140594 11.77566132 35.48796814 11.34214783 34.34078979 C9.34816913 29.06674435 7.34695975 23.79561006 5.33520508 18.52832031 C4.62295678 16.64788221 3.91094715 14.76735369 3.19921875 12.88671875 C2.87214935 12.03834946 2.54507996 11.18998016 2.20809937 10.31590271 C1.76804062 9.14765709 1.76804062 9.14765709 1.3190918 7.95581055 C0.93445015 6.94794746 0.93445015 6.94794746 0.54203796 5.91972351 C0 4 0 4 0 0 Z " fill="#FAFAFA" transform="translate(318,108)"/>
<path d="M0 0 C4.01325325 3.69044809 6.73398501 7.05639149 7.23828125 12.63671875 C7.42562999 20.3377381 6.91378807 25.8849889 1.48046875 31.59765625 C-3.88921145 35.79747148 -9.82735061 35.72339605 -16.42578125 35.48046875 C-23.07657606 34.58642748 -26.29573594 32.04511688 -30.5 27 C-33.55349414 20.8251563 -32.92420335 12.87529932 -30.875 6.5 C-23.49527472 -3.3396337 -10.76926072 -6.49323073 0 0 Z " fill="#A0A0A0" transform="translate(474,195)"/>
</svg>
